<svg xmlns="http://www.w3.org/2000/svg" xmlns:xlink="http://www.w3.org/1999/xlink" version="1.1" id="Exploration" x="0px" y="0px" enable-background="new 0 0 1000 1000" xml:space="preserve" viewBox="121.12 168.4 757.73 663.21" width="52px" height="45px"><style type="text/css">
        .st0{fill:#E12C2C;}
        .st1{fill:#FFFFFF;}
      </style><g><path class="st0" d="M184.31,525.64c25.48-5.66,31.8-37.94,31.8-58.08c0-0.39-0.03-0.8-0.06-1.18c0.03-0.4,0.03-0.82,0.03-1.21   c0-20.14-6.32-49.51-31.8-43.4l-0.94,0.22c-0.03,0.01-0.03,0.01-0.03,0.01v103.88l0.03-0.01L184.31,525.64z"></path><path class="st0" d="M305.2,391.62l-5.83,1.35v42.78c1.65-0.15,3.53-0.59,5.15-0.96c13.31-3.07,19.85-13.71,19.85-26.31   C324.37,395.84,318.77,388.49,305.2,391.62z"></path><path class="st0" d="M862.86,254.92c-13.17-1.3-49.6,0.59-58.74-3.2c-9.02-3.8-21-12.58-25.39-18.87   c-4.39-6.29-22.67-26.46-36.43-31.44c-13.76-5.1-33.23-5.69-40.82-5.69c-7.47,0-27.05,0-34.53-3.09   c-7.48-3.09-18.15-27.53-28.24-23.85c0,0-17.68,1.19-28.95,25.75c-11.27,24.56-8.19,28.24-53.4,38.33   c-45.33,10.09-92.43,6.29-111.9,16.97c-19.46,10.68-40.23,47.11-92.32,49.01c-52.21,1.9-69.77-3.09-127.56,33.34   c-39.04,24.68-54.58,46.04-62.65,61.11l-2.78,5.41l23.44-5.41c49.03-11.32,65.54,21.59,65.54,65.69   c0,44.07-16.51,84.64-65.54,95.96l-31.31,7.23v-80.57v-0.49v-67.11l-2.16,4.2c-9.14,16.85-24.92,49.48-27.53,79.86   c-3.09,36.43,10.08,94.93,11.98,114.39c1.9,19.46,8.78,43.43,8.19,57.2c-0.59,13.88-6.88,49.6,0,57.19   c6.88,7.6,48.41,28.95,76.65,13.88c28.24-15.19,14.36-24.56,9.37-28.95c-4.98-4.39-13.76-16.38-17.56-21.36   c-3.8-5.1-2.49-10.68-0.59-14.48c1.9-3.8,8.78-29.55,10.68-33.94c1.9-4.39,30.85-47.11,33.34-55.3c2.49-8.19,25.16-5.69,30.14-1.3   c5.1,4.39,13.88,32.63,14.48,45.21c0.71,12.58,1.31,47.11,11.99,57.79c10.68,10.68,53.4,12.46,60.99,12.58   c12.82,0.24,25.75-8.78,17.56-16.97c-8.19-8.19-27.65-27.65-30.73-32.04c-3.2-4.39,3.08-23.85,8.78-31.44   c5.69-7.59,9.61-9.49,13.29-1.31c3.68,8.19,21.24,58.5,25.04,88.64c3.68,30.14,4.39,72.14,6.88,79.74   c2.49,7.59,38.92,44.02,58.38,44.02c19.46,0,81.04-11.87,51.5-47.7c-29.55-35.84-32.75-23.85-33.94-55.3   c-1.3-31.45,4.39-93.03,6.29-110c1.9-16.97,2.49-19.46,6.29-10.68c3.8,8.78,11.27,77.25,16.97,98.61s8.66,47.58,31.44,56.48   c22.55,8.78,84.37,19.7,99.32,8.19c9.14-7-5.7-18.15-20.77-30.14c-15.07-11.98-39.63-25.75-40.23-42.72   c-0.59-16.97,11.87-81.76,19.46-99.91c7.48-18.27,11.87-39.04,13.76-67.28c1.9-28.24,4.98-74.16,9.37-76.65   c1.16-0.65,5.4-2.78,11.68-5.97v-68.75l-38.83-83.78l35.2-8.13l11.88,32.46c2.2,6.03,5.34,15.51,7.29,22.35   c2.91-13.08,4.6-17.84,7.03-25.91l11.17-37.52l35.94-8.3l-37.66,101.44v59.38c7.82-4.23,16.09-8.82,24.29-13.58l24.44-15.07   c35.95-23.49,47.82-27.88,55.3-33.46c7.59-5.69,32.04-3.8,52.8-16.38c20.76-12.58,20.05-23.26,20.05-23.26s12.1-9.37,15.19-21.95   c3.09-12.58,13.17-18.87,13.17-33.94C878.88,259.07,876.38,255.87,862.86,254.92z M327.77,521.41l-28.4-67.95v74.51l-32.06,7.4   V373.46l34.75-8.02c11.88-2.74,25-4.8,35.2-0.36c12.86,5.52,19.17,19.83,19.17,34.89c0,18.46-7.29,33.25-23.09,46.62l28.17,67.04   L327.77,521.41z M413.43,501.63l-32.06,7.4V347.12l32.06-7.4V501.63z M526.85,444.85v30.6l-95.14,21.96l55.34-144.34l-50.74,11.71   v-30.34l97.34-22.47l-53.88,143.75L526.85,444.85z M615.43,424.66V455l-65.54,15.13V308.22l32.06-7.4v131.57L615.43,424.66z"></path><polygon class="st1" points="381.38,509.03 413.43,501.63 413.43,339.72 381.38,347.12  "></polygon><polygon class="st1" points="581.94,300.82 549.89,308.22 549.89,470.13 615.43,455 615.43,424.66 581.94,432.39  "></polygon><path class="st1" d="M711.29,270.96l-35.94,8.3l-11.17,37.52c-2.43,8.07-4.11,12.83-7.03,25.91c-1.94-6.84-5.08-16.31-7.29-22.35   l-11.88-32.46l-35.2,8.13l38.83,83.78v68.75c8.05-4.09,19.45-9.95,32.03-16.76v-59.38L711.29,270.96z"></path><polygon class="st1" points="436.31,334.44 436.31,364.78 487.05,353.07 431.71,497.41 526.85,475.45 526.85,444.85 479.77,455.72    533.65,311.97  "></polygon><path class="st1" d="M151.28,481.59v80.57l31.31-7.23c49.03-11.32,65.54-51.89,65.54-95.96c0-44.1-16.51-77.01-65.54-65.69   l-23.44,5.41l-7.87,15.31v67.11V481.59z M183.31,421.99c0,0,0,0,0.03-0.01l0.94-0.22c25.48-6.11,31.8,23.26,31.8,43.4   c0,0.39,0,0.81-0.03,1.21c0.03,0.38,0.06,0.79,0.06,1.18c0,20.14-6.32,52.43-31.8,58.08l-0.97,0.22l-0.03,0.01V421.99z"></path><path class="st1" d="M356.43,399.96c0-15.06-6.31-29.37-19.17-34.89c-10.2-4.45-23.32-2.39-35.2,0.36l-34.75,8.02v161.91l32.06-7.4   v-74.51l28.4,67.95l33.74-7.79l-28.17-67.04C349.15,433.22,356.43,418.42,356.43,399.96z M304.52,434.78   c-1.62,0.37-3.5,0.81-5.15,0.96v-42.78l5.83-1.35c13.57-3.13,19.17,4.22,19.17,16.85C324.37,421.06,317.83,431.71,304.52,434.78z"></path></g></svg>